<?xml version="1.0" standalone="no"?>
<!DOCTYPE svg PUBLIC "-//W3C//DTD SVG 20010904//EN"
 "http://www.w3.org/TR/2001/REC-SVG-20010904/DTD/svg10.dtd">
<svg version="1.0" xmlns="http://www.w3.org/2000/svg"
 width="64.000000pt" height="64.000000pt" viewBox="0 0 64.000000 64.000000"
 preserveAspectRatio="xMidYMid meet">

<g transform="translate(0.000000,64.000000) scale(0.100000,-0.100000)"
fill="#f3982a" stroke="none">
<path d="M44 628 c-40 -19 -44 -48 -44 -308 0 -264 4 -289 47 -309 33 -15 513
-15 546 0 43 20 47 45 47 309 0 264 -4 289 -47 309 -31 14 -519 14 -549 -1z
m514 -70 c17 -17 15 -84 -4 -102 -15 -16 -69 -21 -98 -10 -20 8 -23 110 -3
117 24 10 93 7 105 -5z m-147 -154 c76 -72 19 -204 -89 -204 -82 0 -146 81
-122 155 30 91 141 116 211 49z m-286 -93 c0 -77 35 -130 112 -167 62 -31 119
-29 183 7 66 37 108 118 96 185 -7 33 -6 34 24 34 l30 0 0 -138 c0 -94 -4
-142 -12 -150 -17 -17 -459 -17 -476 0 -8 8 -12 56 -12 150 l0 138 28 0 c27 0
27 -1 27 -59z"/>
</g>
</svg>
